<svg width="284" height="285" viewBox="0 0 284 285" fill="none" xmlns="http://www.w3.org/2000/svg">
<ellipse cx="142.153" cy="142.047" rx="137.42" ry="138.047" stroke="#FFB946" stroke-width="8"/>
<path d="M279.735 142.512C279.735 117.039 272.719 92.0623 259.463 70.347C246.207 48.6317 227.229 31.0243 204.628 19.4735C182.028 7.92269 156.686 2.87894 131.409 4.90048C106.131 6.92202 81.9037 15.93 61.4071 30.9275C40.9105 45.925 24.9444 66.327 15.2758 89.8757C5.60722 113.424 2.61328 139.201 6.62533 164.353C10.6374 189.505 21.4989 213.052 38.0079 232.387C54.5169 251.722 76.0294 266.091 100.165 273.904" stroke="#F7685B" stroke-width="8" stroke-linecap="round"/>
<path d="M279.735 142.512C279.735 120.726 274.602 99.2506 264.757 79.8398C254.912 60.4291 240.633 43.6347 223.088 30.8297C205.544 18.0247 185.231 9.57267 163.812 6.16472C142.393 2.75676 120.474 4.48962 99.8494 11.2216C79.2245 17.9536 60.4784 29.4936 45.1438 44.898C29.8093 60.3025 18.3217 79.134 11.6202 99.8529C4.91877 120.572 3.19377 142.59 6.58627 164.107C9.97876 185.624 18.3924 206.029 31.1393 223.653" stroke="#2ED47A" stroke-width="8" stroke-linecap="round" stroke-linejoin="round"/>
</svg>
