<svg width="24" height="24" viewBox="0 0 24 24" fill="none" xmlns="http://www.w3.org/2000/svg">
<path d="M11.7344 21.5098C11.9785 21.5098 12.2031 21.4023 12.3887 21.207L18.873 14.7227C19.0586 14.5176 19.1367 14.3125 19.1367 14.0879C19.1367 13.5996 18.7852 13.2285 18.2969 13.2285C18.0723 13.2285 17.8379 13.3164 17.6816 13.4727L15.4551 15.6504L12.457 18.9512L12.6133 16.5781L12.6133 4.2344C12.6133 3.7266 12.2422 3.375 11.7344 3.375C11.2266 3.375 10.8652 3.7266 10.8652 4.2344V16.5781L11.0117 18.9414L8.01367 15.6504L5.79688 13.4727C5.63086 13.3066 5.40625 13.2285 5.17188 13.2285C4.69336 13.2285 4.33203 13.5996 4.33203 14.0879C4.33203 14.3125 4.41992 14.5273 4.625 14.7422L11.0801 21.207C11.2754 21.4023 11.5 21.5098 11.7344 21.5098Z" fill="#109CF1"/>
</svg>
