<svg width="16" height="19" viewBox="0 0 16 19" fill="none" xmlns="http://www.w3.org/2000/svg">
<path d="M8.2656 0.490234C8.0215 0.490234 7.7969 0.597664 7.6113 0.792974L1.127 7.27734C0.941399 7.48242 0.863298 7.6875 0.863298 7.91211C0.863298 8.4004 1.2148 8.7715 1.7031 8.7715C1.9277 8.7715 2.1621 8.6836 2.3184 8.5273L4.5449 6.34961L7.543 3.04883L7.3867 5.42188L7.3867 17.7656C7.3867 18.2734 7.7578 18.625 8.2656 18.625C8.7734 18.625 9.1348 18.2734 9.1348 17.7656L9.1348 5.42188L8.9883 3.05859L11.9863 6.34961L14.2031 8.5273C14.3691 8.6934 14.5937 8.7715 14.8281 8.7715C15.3066 8.7715 15.668 8.4004 15.668 7.91211C15.668 7.6875 15.5801 7.47266 15.375 7.25781L8.9199 0.792974C8.7246 0.597664 8.5 0.490234 8.2656 0.490234Z" fill="#109CF1"/>
</svg>
